<mxfile host="app.diagrams.net" agent="Mozilla/5.0 (Windows NT 10.0; Win64; x64) AppleWebKit/537.36 (KHTML, like Gecko) Chrome/132.0.0.0 Safari/537.36" version="26.0.13">
  <diagram name="Page-1" id="SebMKhNIaY3ZdM7P4zVU">
    <mxGraphModel>
      <root>
        <mxCell id="0" />
        <mxCell id="1" parent="0" />
        <mxCell id="2" value="Login System" style="whiteSpace=wrap;strokeWidth=2;verticalAlign=top;" vertex="1" parent="1">
          <mxGeometry x="635" y="8" width="600" height="484" as="geometry" />
        </mxCell>
        <mxCell id="3" value="Login/User Authentication" style="whiteSpace=wrap;strokeWidth=2;" vertex="1" parent="2">
          <mxGeometry x="186" y="46" width="248" height="54" as="geometry" />
        </mxCell>
        <mxCell id="4" value="Logged In?" style="rhombus;strokeWidth=2;whiteSpace=wrap;" vertex="1" parent="2">
          <mxGeometry x="246" y="175" width="128" height="128" as="geometry" />
        </mxCell>
        <mxCell id="5" value="Ability to Change Answers" style="whiteSpace=wrap;strokeWidth=2;" vertex="1" parent="2">
          <mxGeometry x="44" y="401" width="245" height="54" as="geometry" />
        </mxCell>
        <mxCell id="6" value="Cannot Change Answers" style="whiteSpace=wrap;strokeWidth=2;" vertex="1" parent="2">
          <mxGeometry x="339" y="401" width="229" height="54" as="geometry" />
        </mxCell>
        <mxCell id="7" value="" style="curved=1;startArrow=none;endArrow=block;exitX=0.5;exitY=0.99;entryX=0.5;entryY=0;" edge="1" parent="2" source="3" target="4">
          <mxGeometry relative="1" as="geometry">
            <Array as="points" />
          </mxGeometry>
        </mxCell>
        <mxCell id="8" value="Yes" style="curved=1;startArrow=none;endArrow=block;exitX=0;exitY=0.89;entryX=0.5;entryY=0;" edge="1" parent="2" source="4" target="5">
          <mxGeometry relative="1" as="geometry">
            <Array as="points">
              <mxPoint x="166" y="352" />
            </Array>
          </mxGeometry>
        </mxCell>
        <mxCell id="9" value="No" style="curved=1;startArrow=none;endArrow=block;exitX=1;exitY=0.89;entryX=0.5;entryY=0;" edge="1" parent="2" source="4" target="6">
          <mxGeometry relative="1" as="geometry">
            <Array as="points">
              <mxPoint x="454" y="352" />
            </Array>
          </mxGeometry>
        </mxCell>
        <mxCell id="10" value="Questionnaire System" style="whiteSpace=wrap;strokeWidth=2;verticalAlign=top;" vertex="1" parent="1">
          <mxGeometry x="8" y="542" width="1854" height="1608" as="geometry" />
        </mxCell>
        <mxCell id="11" value="Start" style="ellipse;aspect=fixed;strokeWidth=2;whiteSpace=wrap;" vertex="1" parent="10">
          <mxGeometry x="919" y="46" width="50" height="50" as="geometry" />
        </mxCell>
        <mxCell id="12" value="Questions" style="rhombus;strokeWidth=2;whiteSpace=wrap;" vertex="1" parent="10">
          <mxGeometry x="882" y="171" width="123" height="123" as="geometry" />
        </mxCell>
        <mxCell id="13" value="Section 1" style="whiteSpace=wrap;strokeWidth=2;" vertex="1" parent="10">
          <mxGeometry x="881" y="369" width="126" height="54" as="geometry" />
        </mxCell>
        <mxCell id="14" value="Q1: What is your age?" style="whiteSpace=wrap;strokeWidth=2;" vertex="1" parent="10">
          <mxGeometry x="376" y="498" width="215" height="54" as="geometry" />
        </mxCell>
        <mxCell id="15" value="Q2: How satisfied are you with the product?" style="whiteSpace=wrap;strokeWidth=2;" vertex="1" parent="10">
          <mxGeometry x="353" y="627" width="260" height="78" as="geometry" />
        </mxCell>
        <mxCell id="16" value="Point System Calculation" style="whiteSpace=wrap;strokeWidth=2;" vertex="1" parent="10">
          <mxGeometry x="364" y="792" width="237" height="54" as="geometry" />
        </mxCell>
        <mxCell id="17" value="Result" style="rhombus;strokeWidth=2;whiteSpace=wrap;" vertex="1" parent="10">
          <mxGeometry x="434" y="933" width="98" height="98" as="geometry" />
        </mxCell>
        <mxCell id="18" value="Result 1 - Improvement Needed" style="whiteSpace=wrap;strokeWidth=2;" vertex="1" parent="10">
          <mxGeometry x="43" y="1138" width="260" height="78" as="geometry" />
        </mxCell>
        <mxCell id="19" value="Result 2 - Moderate Satisfaction" style="whiteSpace=wrap;strokeWidth=2;" vertex="1" parent="10">
          <mxGeometry x="353" y="1138" width="260" height="78" as="geometry" />
        </mxCell>
        <mxCell id="20" value="Result 3 - Highly Satisfied" style="whiteSpace=wrap;strokeWidth=2;" vertex="1" parent="10">
          <mxGeometry x="663" y="1150" width="243" height="54" as="geometry" />
        </mxCell>
        <mxCell id="21" value="Result 4 - Exceptionally Satisfied" style="whiteSpace=wrap;strokeWidth=2;" vertex="1" parent="10">
          <mxGeometry x="655" y="1324" width="260" height="78" as="geometry" />
        </mxCell>
        <mxCell id="22" value="Result 5 - Extremely Satisfied" style="whiteSpace=wrap;strokeWidth=2;" vertex="1" parent="10">
          <mxGeometry x="655" y="1500" width="260" height="78" as="geometry" />
        </mxCell>
        <mxCell id="23" value="Section 2" style="whiteSpace=wrap;strokeWidth=2;" vertex="1" parent="10">
          <mxGeometry x="1342" y="498" width="126" height="54" as="geometry" />
        </mxCell>
        <mxCell id="24" value="Q3: How likely are you to recommend the product?" style="whiteSpace=wrap;strokeWidth=2;" vertex="1" parent="10">
          <mxGeometry x="1275" y="627" width="260" height="78" as="geometry" />
        </mxCell>
        <mxCell id="25" value="Q4: Any additional comments?" style="whiteSpace=wrap;strokeWidth=2;" vertex="1" parent="10">
          <mxGeometry x="1275" y="780" width="260" height="78" as="geometry" />
        </mxCell>
        <mxCell id="26" value="Point System Calculation" style="whiteSpace=wrap;strokeWidth=2;" vertex="1" parent="10">
          <mxGeometry x="1286" y="955" width="237" height="54" as="geometry" />
        </mxCell>
        <mxCell id="27" value="Result" style="rhombus;strokeWidth=2;whiteSpace=wrap;" vertex="1" parent="10">
          <mxGeometry x="1356" y="1129" width="98" height="98" as="geometry" />
        </mxCell>
        <mxCell id="28" value="Result 1 - Needs Improvement" style="whiteSpace=wrap;strokeWidth=2;" vertex="1" parent="10">
          <mxGeometry x="965" y="1324" width="260" height="78" as="geometry" />
        </mxCell>
        <mxCell id="29" value="Result 2 - Considering Improvement" style="whiteSpace=wrap;strokeWidth=2;" vertex="1" parent="10">
          <mxGeometry x="1275" y="1324" width="260" height="78" as="geometry" />
        </mxCell>
        <mxCell id="30" value="Result 3 - Good Feedback" style="whiteSpace=wrap;strokeWidth=2;" vertex="1" parent="10">
          <mxGeometry x="1585" y="1336" width="242" height="54" as="geometry" />
        </mxCell>
        <mxCell id="31" value="" style="curved=1;startArrow=none;endArrow=block;exitX=0.5;exitY=0.99;entryX=0.5;entryY=0;" edge="1" parent="10" source="11" target="12">
          <mxGeometry relative="1" as="geometry">
            <Array as="points" />
          </mxGeometry>
        </mxCell>
        <mxCell id="32" value="" style="curved=1;startArrow=none;endArrow=block;exitX=0.5;exitY=1;entryX=0.5;entryY=0;" edge="1" parent="10" source="12" target="13">
          <mxGeometry relative="1" as="geometry">
            <Array as="points" />
          </mxGeometry>
        </mxCell>
        <mxCell id="33" value="" style="curved=1;startArrow=none;endArrow=block;exitX=0;exitY=0.66;entryX=0.5;entryY=0;" edge="1" parent="10" source="13" target="14">
          <mxGeometry relative="1" as="geometry">
            <Array as="points">
              <mxPoint x="483" y="460" />
            </Array>
          </mxGeometry>
        </mxCell>
        <mxCell id="34" value="" style="curved=1;startArrow=none;endArrow=block;exitX=0.5;exitY=1;entryX=0.5;entryY=0;" edge="1" parent="10" source="14" target="15">
          <mxGeometry relative="1" as="geometry">
            <Array as="points" />
          </mxGeometry>
        </mxCell>
        <mxCell id="35" value="" style="curved=1;startArrow=none;endArrow=block;exitX=0.5;exitY=1;entryX=0.5;entryY=0;" edge="1" parent="10" source="15" target="16">
          <mxGeometry relative="1" as="geometry">
            <Array as="points" />
          </mxGeometry>
        </mxCell>
        <mxCell id="36" value="" style="curved=1;startArrow=none;endArrow=block;exitX=0.5;exitY=1;entryX=0.5;entryY=0;" edge="1" parent="10" source="16" target="17">
          <mxGeometry relative="1" as="geometry">
            <Array as="points" />
          </mxGeometry>
        </mxCell>
        <mxCell id="37" value="Low Points" style="curved=1;startArrow=none;endArrow=block;exitX=0;exitY=0.66;entryX=0.5;entryY=0.01;" edge="1" parent="10" source="17" target="18">
          <mxGeometry relative="1" as="geometry">
            <Array as="points">
              <mxPoint x="173" y="1080" />
            </Array>
          </mxGeometry>
        </mxCell>
        <mxCell id="38" value="Medium Points" style="curved=1;startArrow=none;endArrow=block;exitX=0.5;exitY=1;entryX=0.5;entryY=0.01;" edge="1" parent="10" source="17" target="19">
          <mxGeometry relative="1" as="geometry">
            <Array as="points" />
          </mxGeometry>
        </mxCell>
        <mxCell id="39" value="High Points" style="curved=1;startArrow=none;endArrow=block;exitX=1;exitY=0.66;entryX=0.5;entryY=0.01;" edge="1" parent="10" source="17" target="20">
          <mxGeometry relative="1" as="geometry">
            <Array as="points">
              <mxPoint x="785" y="1080" />
            </Array>
          </mxGeometry>
        </mxCell>
        <mxCell id="40" value="High Points" style="curved=1;startArrow=none;endArrow=block;exitX=0.5;exitY=1.01;entryX=0.5;entryY=0;" edge="1" parent="10" source="20" target="21">
          <mxGeometry relative="1" as="geometry">
            <Array as="points" />
          </mxGeometry>
        </mxCell>
        <mxCell id="41" value="High Points" style="curved=1;startArrow=none;endArrow=block;exitX=0.5;exitY=1;entryX=0.5;entryY=0;" edge="1" parent="10" source="21" target="22">
          <mxGeometry relative="1" as="geometry">
            <Array as="points" />
          </mxGeometry>
        </mxCell>
        <mxCell id="42" value="" style="curved=1;startArrow=none;endArrow=block;exitX=1;exitY=0.66;entryX=0.5;entryY=0;" edge="1" parent="10" source="13" target="23">
          <mxGeometry relative="1" as="geometry">
            <Array as="points">
              <mxPoint x="1405" y="460" />
            </Array>
          </mxGeometry>
        </mxCell>
        <mxCell id="43" value="" style="curved=1;startArrow=none;endArrow=block;exitX=0.5;exitY=1;entryX=0.5;entryY=0;" edge="1" parent="10" source="23" target="24">
          <mxGeometry relative="1" as="geometry">
            <Array as="points" />
          </mxGeometry>
        </mxCell>
        <mxCell id="44" value="" style="curved=1;startArrow=none;endArrow=block;exitX=0.5;exitY=1;entryX=0.5;entryY=0;" edge="1" parent="10" source="24" target="25">
          <mxGeometry relative="1" as="geometry">
            <Array as="points" />
          </mxGeometry>
        </mxCell>
        <mxCell id="45" value="" style="curved=1;startArrow=none;endArrow=block;exitX=0.5;exitY=1;entryX=0.5;entryY=0;" edge="1" parent="10" source="25" target="26">
          <mxGeometry relative="1" as="geometry">
            <Array as="points" />
          </mxGeometry>
        </mxCell>
        <mxCell id="46" value="" style="curved=1;startArrow=none;endArrow=block;exitX=0.5;exitY=1;entryX=0.5;entryY=0;" edge="1" parent="10" source="26" target="27">
          <mxGeometry relative="1" as="geometry">
            <Array as="points" />
          </mxGeometry>
        </mxCell>
        <mxCell id="47" value="Low Points" style="curved=1;startArrow=none;endArrow=block;exitX=0;exitY=0.65;entryX=0.5;entryY=0;" edge="1" parent="10" source="27" target="28">
          <mxGeometry relative="1" as="geometry">
            <Array as="points">
              <mxPoint x="1095" y="1275" />
            </Array>
          </mxGeometry>
        </mxCell>
        <mxCell id="48" value="Medium Points" style="curved=1;startArrow=none;endArrow=block;exitX=0.5;exitY=0.99;entryX=0.5;entryY=0;" edge="1" parent="10" source="27" target="29">
          <mxGeometry relative="1" as="geometry">
            <Array as="points" />
          </mxGeometry>
        </mxCell>
        <mxCell id="49" value="High Points" style="curved=1;startArrow=none;endArrow=block;exitX=0.99;exitY=0.66;entryX=0.5;entryY=0.01;" edge="1" parent="10" source="27" target="30">
          <mxGeometry relative="1" as="geometry">
            <Array as="points">
              <mxPoint x="1706" y="1275" />
            </Array>
          </mxGeometry>
        </mxCell>
      </root>
    </mxGraphModel>
  </diagram>
</mxfile>
